<svg width="24" height="25" viewBox="0 0 24 25" fill="currentColor" xmlns="http://www.w3.org/2000/svg">
<path d="M19.9586 2.47046H14.5029C13.6241 2.47046 12.9116 3.18289 12.9116 4.06172V9.51748C12.9116 10.3963 13.6241 11.1087 14.5029 11.1087H19.9586C20.8375 11.1087 21.5499 10.3963 21.5499 9.51748V4.06172C21.5499 3.18289 20.8375 2.47046 19.9586 2.47046Z" fill="inherit"/>
<path d="M21.5345 16.576L18.3555 13.397C18.0567 13.0993 17.6522 12.9321 17.2304 12.9321C16.8087 12.9321 16.4041 13.0993 16.1054 13.397L12.9264 16.576C12.6285 16.8746 12.4612 17.2792 12.4612 17.701C12.4612 18.1229 12.6285 18.5275 12.9264 18.8261L16.1054 22.0051C16.404 22.303 16.8086 22.4704 17.2304 22.4704C17.6523 22.4704 18.0569 22.303 18.3555 22.0051L21.5345 18.8261C21.8326 18.5276 22 18.1229 22 17.701C22 17.2791 21.8326 16.8745 21.5345 16.576Z" fill="#E5E7EB"/>
<path d="M9.04702 2.47046H3.59126C2.71243 2.47046 2 3.18289 2 4.06172V9.51748C2 10.3963 2.71243 11.1087 3.59126 11.1087H9.04702C9.92585 11.1087 10.6383 10.3963 10.6383 9.51748V4.06172C10.6383 3.18289 9.92585 2.47046 9.04702 2.47046Z" fill="inherit"/>
<path d="M9.04702 13.382H3.59126C2.71243 13.382 2 14.0944 2 14.9732V20.429C2 21.3078 2.71243 22.0202 3.59126 22.0202H9.04702C9.92585 22.0202 10.6383 21.3078 10.6383 20.429V14.9732C10.6383 14.0944 9.92585 13.382 9.04702 13.382Z" fill="inherit"/>
</svg>
