<svg width="20" height="20" viewBox="0 0 20 20" fill="none" xmlns="http://www.w3.org/2000/svg">
<g clip-path="url(#clip0_9319_76278)">
<path d="M0.002 0.002C6.63622 0.002 13.2702 0.00222222 19.9044 0C19.9824 0 20.0002 0.0175556 20.0002 0.0957778C19.9982 6.69867 19.9982 13.3016 20.0002 19.9044C20.0002 19.9824 19.9827 20.0002 19.9047 20.0002C13.3018 19.9982 6.69889 19.9982 0.096 20.0002C0.0175556 20 0 19.9824 0 19.9044C0.002 13.2702 0.002 6.636 0.002 0.002ZM10 0.0208889C6.72978 0.0208889 3.45978 0.0208889 0.189556 0.0208889C0.0228889 0.0208889 0.0228889 0.0208889 0.0228889 0.183778C0.0228889 6.72756 0.0228889 13.2713 0.0228889 19.8153C0.0228889 19.9771 0.0228889 19.9773 0.189556 19.9773C6.73 19.9773 13.2702 19.9773 19.8107 19.9773C19.9773 19.9773 19.9773 19.9773 19.9773 19.8153C19.9773 13.2716 19.9773 6.72778 19.9773 0.183778C19.9773 0.0211111 19.9771 0.0211111 19.8107 0.0211111C16.5402 0.0208889 13.2702 0.0208889 10 0.0208889Z" fill="#89C767"/>
<path d="M9.99999 0.0209131C13.2702 0.0209131 16.5404 0.0209131 19.8104 0.0209131C19.9771 0.0209131 19.9771 0.0209131 19.9771 0.18358C19.9771 6.72736 19.9771 13.2711 19.9771 19.8151C19.9771 19.9771 19.9769 19.9771 19.8104 19.9771C13.27 19.9771 6.72977 19.9771 0.189326 19.9771C0.0226593 19.9771 0.0226593 19.9771 0.0226593 19.8151C0.0226593 13.2714 0.0226593 6.72758 0.0226593 0.18358C0.0226593 0.0209131 0.0228815 0.0206909 0.189326 0.0206909C3.45955 0.0209131 6.72977 0.0209131 9.99999 0.0209131ZM10.0007 2.41714C5.82666 2.41714 2.42555 5.80691 2.42288 9.96958C2.42022 14.1667 5.80044 17.5791 9.96288 17.5811C14.1744 17.5834 17.576 14.202 17.5771 10.0125C17.578 5.81314 14.1904 2.41714 10.0007 2.41714Z" fill="#70BF45"/>
<path d="M10.0007 2.41711C14.1904 2.41711 17.578 5.81334 17.5771 10.0124C17.576 14.2018 14.1744 17.5833 9.96288 17.5811C5.80044 17.5791 2.42022 14.1667 2.42288 9.96956C2.42555 5.80667 5.82666 2.41711 10.0007 2.41711ZM12.3551 11.626C12.3538 11.8731 12.3633 12.106 12.332 12.3373C12.2233 13.1376 11.8291 13.7253 11.0533 14.0102C10.6031 14.1753 10.134 14.1758 9.66599 14.0936C8.93933 13.9658 8.42666 13.5527 8.10422 12.8962C8.06933 12.8251 8.03222 12.7962 7.94866 12.7973C7.57044 12.8031 7.192 12.8011 6.81377 12.7987C6.74044 12.7982 6.71711 12.8073 6.744 12.89C7.01133 13.7124 7.50444 14.3562 8.25355 14.7931C9.13066 15.3047 10.0811 15.4269 11.0587 15.2193C12.3362 14.9482 13.1627 14.1673 13.4884 12.8896C13.6084 12.4184 13.6002 11.9329 13.6007 11.4507C13.6022 9.43756 13.6013 7.42445 13.6013 5.41111C13.6013 5.39378 13.5993 5.37623 13.6018 5.35911C13.6091 5.30378 13.5851 5.28823 13.5313 5.28845C13.16 5.29023 12.7884 5.29111 12.4171 5.288C12.3489 5.28734 12.3478 5.32067 12.348 5.37089C12.3496 5.6 12.3491 5.82911 12.3478 6.05823C12.3476 6.08311 12.3633 6.11356 12.3336 6.134C10.8351 4.86178 8.59688 5.054 7.31466 6.49334C6.12244 7.83156 6.10288 9.86178 7.26977 11.2309C8.53177 12.7111 10.8351 12.94 12.3551 11.626Z" fill="#FFFFFE"/>
<path d="M12.3551 11.626C10.8351 12.94 8.53178 12.7111 7.26978 11.2304C6.10289 9.8611 6.12245 7.83088 7.31467 6.49288C8.59689 5.05354 10.8351 4.86132 12.3336 6.13355C12.3633 6.1131 12.3476 6.08266 12.3478 6.05777C12.3491 5.82866 12.3493 5.59954 12.348 5.37043C12.3478 5.32021 12.3489 5.2871 12.4171 5.28754C12.7884 5.29066 13.1598 5.28999 13.5313 5.28799C13.5851 5.28777 13.6093 5.30332 13.6018 5.35866C13.5996 5.37577 13.6013 5.39332 13.6013 5.41066C13.6013 7.42377 13.6022 9.43688 13.6007 11.4502C13.6002 11.9324 13.6084 12.418 13.4884 12.8891C13.1627 14.1669 12.3362 14.9478 11.0587 15.2189C10.0811 15.4264 9.13089 15.3042 8.25356 14.7927C7.50445 14.3558 7.01112 13.712 6.744 12.8895C6.71712 12.8069 6.74045 12.7978 6.81378 12.7982C7.192 12.8007 7.57045 12.8027 7.94867 12.7969C8.03223 12.7955 8.06934 12.8247 8.10423 12.8958C8.42667 13.552 8.93934 13.9653 9.666 14.0931C10.134 14.1753 10.6031 14.1751 11.0533 14.0098C11.8291 13.7251 12.2233 13.1371 12.332 12.3369C12.3636 12.1058 12.3538 11.8731 12.3551 11.626ZM7.66445 8.88932C7.66578 10.1842 8.71489 11.2304 10.0102 11.2289C11.3018 11.2273 12.3518 10.1729 12.3489 8.88021C12.346 7.59021 11.2896 6.54154 9.996 6.54488C8.70911 6.54821 7.66289 7.60021 7.66445 8.88932Z" fill="#70BF45"/>
<path d="M7.66406 8.88937C7.66273 7.60026 8.70873 6.54826 9.9954 6.54493C11.289 6.5416 12.3454 7.59004 12.3483 8.88026C12.3512 10.1732 11.3012 11.2276 10.0096 11.2289C8.71429 11.2305 7.6654 10.1843 7.66406 8.88937Z" fill="#FFFFFE"/>
</g>
<defs>
<clipPath id="clip0_9319_76278">
<rect width="20" height="20" rx="4" fill="white"/>
</clipPath>
</defs>
</svg>
