<svg width="167" height="22" viewBox="0 0 167 22" fill="none" xmlns="http://www.w3.org/2000/svg">
<path d="M5 7C5 5.93913 5.42143 4.92172 6.17157 4.17157C6.92172 3.42143 7.93913 3 9 3C10.0609 3 11.0783 3.42143 11.8284 4.17157C12.5786 4.92172 13 5.93913 13 7C13 8.06087 12.5786 9.07828 11.8284 9.82843C11.0783 10.5786 10.0609 11 9 11C7.93913 11 6.92172 10.5786 6.17157 9.82843C5.42143 9.07828 5 8.06087 5 7ZM9 4C8.20435 4 7.44129 4.31607 6.87868 4.87868C6.31607 5.44129 6 6.20435 6 7C6 7.79565 6.31607 8.55871 6.87868 9.12132C7.44129 9.68393 8.20435 10 9 10C9.79565 10 10.5587 9.68393 11.1213 9.12132C11.6839 8.55871 12 7.79565 12 7C12 6.20435 11.6839 5.44129 11.1213 4.87868C10.5587 4.31607 9.79565 4 9 4ZM2 14C2 12.887 2.903 12 4.009 12H14C14.2801 11.9998 14.557 12.0584 14.813 12.172C14.7014 12.6138 14.7365 13.0799 14.913 13.5H14.866C14.7782 13.348 14.652 13.2217 14.5 13.134C14.348 13.0462 14.1755 13 14 13H4.009C3.448 13 3 13.447 3 14C3 15.309 3.622 16.284 4.673 16.953C5.743 17.636 7.265 18 9 18C9.962 18 10.858 17.888 11.648 17.672C11.514 18.0093 11.4699 18.3756 11.52 18.735C10.731 18.913 9.88 19 9 19C7.145 19 5.417 18.614 4.135 17.797C2.833 16.967 2 15.69 2 14Z" fill="#222222"/>
<path d="M16.7347 11.6095L16.3358 12.5505H16.3348L16.2978 12.6545C16.2389 12.8436 16.2336 13.0454 16.2823 13.2374C16.331 13.4294 16.4319 13.6042 16.5738 13.7425L17.4528 14.5775L17.4228 14.7915C17.3498 15.2175 17.1908 15.6375 16.9497 16.0525C16.6688 16.5375 16.3168 16.9375 15.8958 17.2575L14.8388 16.9045L14.7388 16.8775C14.5529 16.8396 14.36 16.8584 14.185 16.9313C14.0099 17.0042 13.8608 17.1279 13.7568 17.2865L13.1848 18.1265L13.1288 18.2185C13.0202 18.4202 12.9787 18.6513 13.0103 18.8783C13.042 19.1052 13.1451 19.3161 13.3048 19.4805L13.6848 19.8615L13.7818 19.9515C14.1518 20.2625 14.6438 20.3655 15.1018 20.2225C16.2808 19.8545 17.3637 18.7635 18.3527 16.9475C19.3438 15.1295 19.6927 13.5865 19.4017 12.3195C19.2787 11.7865 18.8998 11.3625 18.4038 11.2035L17.9038 11.0435L17.8098 11.0195C17.3698 10.9275 16.9217 11.1675 16.7347 11.6095Z" fill="#FCAF17"/>
<path d="M35.6562 10.3262V11.3994H30.2695V10.3262H35.6562ZM30.4746 6.04688V16H29.1553V6.04688H30.4746ZM36.8047 6.04688V16H35.4922V6.04688H36.8047ZM38.623 12.3838V12.2266C38.623 11.6934 38.7005 11.1989 38.8555 10.7432C39.0104 10.2829 39.2337 9.88411 39.5254 9.54688C39.8171 9.20508 40.1702 8.94076 40.585 8.75391C40.9997 8.5625 41.4645 8.4668 41.9795 8.4668C42.499 8.4668 42.9661 8.5625 43.3809 8.75391C43.8001 8.94076 44.1556 9.20508 44.4473 9.54688C44.7435 9.88411 44.9691 10.2829 45.124 10.7432C45.279 11.1989 45.3564 11.6934 45.3564 12.2266V12.3838C45.3564 12.917 45.279 13.4115 45.124 13.8672C44.9691 14.3229 44.7435 14.7217 44.4473 15.0635C44.1556 15.4007 43.8024 15.665 43.3877 15.8564C42.9775 16.0433 42.5127 16.1367 41.9932 16.1367C41.4736 16.1367 41.0065 16.0433 40.5918 15.8564C40.1771 15.665 39.8216 15.4007 39.5254 15.0635C39.2337 14.7217 39.0104 14.3229 38.8555 13.8672C38.7005 13.4115 38.623 12.917 38.623 12.3838ZM39.8877 12.2266V12.3838C39.8877 12.7529 39.931 13.1016 40.0176 13.4297C40.1042 13.7533 40.234 14.0404 40.4072 14.291C40.585 14.5417 40.806 14.7399 41.0703 14.8857C41.3346 15.027 41.6423 15.0977 41.9932 15.0977C42.3395 15.0977 42.6426 15.027 42.9023 14.8857C43.1667 14.7399 43.3854 14.5417 43.5586 14.291C43.7318 14.0404 43.8617 13.7533 43.9482 13.4297C44.0394 13.1016 44.085 12.7529 44.085 12.3838V12.2266C44.085 11.862 44.0394 11.5179 43.9482 11.1943C43.8617 10.8662 43.7295 10.5768 43.5518 10.3262C43.3786 10.071 43.1598 9.87044 42.8955 9.72461C42.6357 9.57878 42.3304 9.50586 41.9795 9.50586C41.6331 9.50586 41.3278 9.57878 41.0635 9.72461C40.8037 9.87044 40.585 10.071 40.4072 10.3262C40.234 10.5768 40.1042 10.8662 40.0176 11.1943C39.931 11.5179 39.8877 11.862 39.8877 12.2266ZM50.0391 8.60352V9.57422H46.04V8.60352H50.0391ZM47.3936 6.80566H48.6582V14.168C48.6582 14.4186 48.6969 14.6077 48.7744 14.7354C48.8519 14.863 48.9521 14.9473 49.0752 14.9883C49.1982 15.0293 49.3304 15.0498 49.4717 15.0498C49.5765 15.0498 49.6859 15.0407 49.7998 15.0225C49.9183 14.9997 50.0072 14.9814 50.0664 14.9678L50.0732 16C49.973 16.0319 49.8408 16.0615 49.6768 16.0889C49.5173 16.1208 49.3236 16.1367 49.0957 16.1367C48.7858 16.1367 48.501 16.0752 48.2412 15.9521C47.9814 15.8291 47.7741 15.624 47.6191 15.3369C47.4688 15.0452 47.3936 14.6533 47.3936 14.1611V6.80566ZM52.8965 5.5V16H51.625V5.5H52.8965ZM56.3008 8.60352V16H55.0293V8.60352H56.3008ZM54.9336 6.6416C54.9336 6.43652 54.9951 6.26335 55.1182 6.12207C55.2458 5.98079 55.4326 5.91016 55.6787 5.91016C55.9202 5.91016 56.1048 5.98079 56.2324 6.12207C56.3646 6.26335 56.4307 6.43652 56.4307 6.6416C56.4307 6.83757 56.3646 7.00618 56.2324 7.14746C56.1048 7.28418 55.9202 7.35254 55.6787 7.35254C55.4326 7.35254 55.2458 7.28418 55.1182 7.14746C54.9951 7.00618 54.9336 6.83757 54.9336 6.6416ZM59.5957 10.1826V16H58.3311V8.60352H59.5273L59.5957 10.1826ZM59.2949 12.0215L58.7686 12.001C58.7731 11.4951 58.8483 11.028 58.9941 10.5996C59.14 10.1667 59.3451 9.79069 59.6094 9.47168C59.8737 9.15267 60.1882 8.90658 60.5527 8.7334C60.9219 8.55566 61.3298 8.4668 61.7764 8.4668C62.141 8.4668 62.4691 8.51693 62.7607 8.61719C63.0524 8.71289 63.3008 8.86784 63.5059 9.08203C63.7155 9.29622 63.875 9.57422 63.9844 9.91602C64.0938 10.2533 64.1484 10.6657 64.1484 11.1533V16H62.877V11.1396C62.877 10.7523 62.82 10.4424 62.7061 10.21C62.5921 9.97298 62.4258 9.80208 62.207 9.69727C61.9883 9.58789 61.7194 9.5332 61.4004 9.5332C61.0859 9.5332 60.7988 9.59928 60.5391 9.73145C60.2839 9.86361 60.0628 10.0459 59.876 10.2783C59.6937 10.5107 59.5501 10.7773 59.4453 11.0781C59.3451 11.3743 59.2949 11.6888 59.2949 12.0215ZM69.1387 16.1367C68.6237 16.1367 68.1566 16.0501 67.7373 15.877C67.3226 15.6992 66.9648 15.4508 66.6641 15.1318C66.3678 14.8128 66.14 14.4346 65.9805 13.9971C65.821 13.5596 65.7412 13.0811 65.7412 12.5615V12.2744C65.7412 11.6729 65.8301 11.1374 66.0078 10.668C66.1855 10.194 66.4271 9.79297 66.7324 9.46484C67.0378 9.13672 67.3841 8.88835 67.7715 8.71973C68.1589 8.55111 68.5599 8.4668 68.9746 8.4668C69.5033 8.4668 69.959 8.55794 70.3418 8.74023C70.7292 8.92253 71.0459 9.17773 71.292 9.50586C71.5381 9.82943 71.7204 10.2122 71.8389 10.6543C71.9574 11.0918 72.0166 11.5703 72.0166 12.0898V12.6572H66.4932V11.625H70.752V11.5293C70.7337 11.2012 70.6654 10.8822 70.5469 10.5723C70.4329 10.2624 70.2507 10.0072 70 9.80664C69.7493 9.60612 69.4076 9.50586 68.9746 9.50586C68.6875 9.50586 68.4232 9.56738 68.1816 9.69043C67.9401 9.80892 67.7327 9.98665 67.5596 10.2236C67.3864 10.4606 67.252 10.75 67.1562 11.0918C67.0605 11.4336 67.0127 11.8278 67.0127 12.2744V12.5615C67.0127 12.9124 67.0605 13.2428 67.1562 13.5527C67.2565 13.8581 67.4001 14.127 67.5869 14.3594C67.7783 14.5918 68.0085 14.7741 68.2773 14.9062C68.5508 15.0384 68.8607 15.1045 69.207 15.1045C69.6536 15.1045 70.0319 15.0133 70.3418 14.8311C70.6517 14.6488 70.9229 14.4049 71.1553 14.0996L71.9209 14.708C71.7614 14.9495 71.5586 15.1797 71.3125 15.3984C71.0664 15.6172 70.7633 15.7949 70.4033 15.9316C70.0479 16.0684 69.6263 16.1367 69.1387 16.1367ZM73.4385 15.3301C73.4385 15.1159 73.5046 14.9359 73.6367 14.79C73.7734 14.6396 73.9694 14.5645 74.2246 14.5645C74.4798 14.5645 74.6735 14.6396 74.8057 14.79C74.9424 14.9359 75.0107 15.1159 75.0107 15.3301C75.0107 15.5397 74.9424 15.7174 74.8057 15.8633C74.6735 16.0091 74.4798 16.082 74.2246 16.082C73.9694 16.082 73.7734 16.0091 73.6367 15.8633C73.5046 15.7174 73.4385 15.5397 73.4385 15.3301ZM73.4453 9.29395C73.4453 9.07975 73.5114 8.89974 73.6436 8.75391C73.7803 8.60352 73.9762 8.52832 74.2314 8.52832C74.4867 8.52832 74.6803 8.60352 74.8125 8.75391C74.9492 8.89974 75.0176 9.07975 75.0176 9.29395C75.0176 9.50358 74.9492 9.68132 74.8125 9.82715C74.6803 9.97298 74.4867 10.0459 74.2314 10.0459C73.9762 10.0459 73.7803 9.97298 73.6436 9.82715C73.5114 9.68132 73.4453 9.50358 73.4453 9.29395Z" fill="#595959"/>
<path d="M86.7002 10.1689V11.8438C86.7002 12.6094 86.6227 13.2633 86.4678 13.8057C86.3128 14.348 86.0895 14.7923 85.7979 15.1387C85.5062 15.4805 85.1576 15.7334 84.752 15.8975C84.3464 16.057 83.8952 16.1367 83.3984 16.1367C83.002 16.1367 82.6328 16.0866 82.291 15.9863C81.9492 15.8815 81.6416 15.722 81.3682 15.5078C81.0993 15.2891 80.8669 15.0111 80.6709 14.6738C80.4795 14.3366 80.3314 13.9333 80.2266 13.4639C80.1263 12.9945 80.0762 12.4544 80.0762 11.8438V10.1689C80.0762 9.40332 80.1536 8.75163 80.3086 8.21387C80.4681 7.67611 80.6937 7.23633 80.9854 6.89453C81.277 6.55273 81.6257 6.30436 82.0312 6.14941C82.4368 5.98991 82.888 5.91016 83.3848 5.91016C83.7858 5.91016 84.1549 5.96029 84.4922 6.06055C84.834 6.16081 85.1393 6.31803 85.4082 6.53223C85.6816 6.74186 85.9141 7.0153 86.1055 7.35254C86.2969 7.68522 86.4427 8.08626 86.543 8.55566C86.6478 9.02051 86.7002 9.55827 86.7002 10.1689ZM84.8955 12.0898V9.91602C84.8955 9.5332 84.8727 9.20052 84.8271 8.91797C84.7861 8.63086 84.7246 8.38704 84.6426 8.18652C84.5605 7.986 84.458 7.82422 84.335 7.70117C84.2119 7.57357 84.0706 7.48014 83.9111 7.4209C83.7516 7.36165 83.5762 7.33203 83.3848 7.33203C83.1478 7.33203 82.9359 7.37988 82.749 7.47559C82.5622 7.56673 82.4049 7.71257 82.2773 7.91309C82.1497 8.11361 82.0518 8.38021 81.9834 8.71289C81.9196 9.04102 81.8877 9.44206 81.8877 9.91602V12.0898C81.8877 12.4727 81.9082 12.8076 81.9492 13.0947C81.9948 13.3818 82.0586 13.6279 82.1406 13.833C82.2272 14.0381 82.3298 14.2067 82.4482 14.3389C82.5713 14.4665 82.7126 14.5622 82.8721 14.626C83.0316 14.6852 83.207 14.7148 83.3984 14.7148C83.64 14.7148 83.8519 14.667 84.0342 14.5713C84.221 14.4756 84.3783 14.3252 84.5059 14.1201C84.6335 13.9105 84.7292 13.6393 84.793 13.3066C84.8613 12.9694 84.8955 12.5638 84.8955 12.0898ZM94.7119 13.2793C94.7119 13.8991 94.5661 14.4232 94.2744 14.8516C93.9873 15.2754 93.5931 15.5967 93.0918 15.8154C92.5951 16.0296 92.0299 16.1367 91.3965 16.1367C90.7676 16.1367 90.2002 16.0296 89.6943 15.8154C89.193 15.5967 88.7943 15.2754 88.498 14.8516C88.2064 14.4232 88.0605 13.8991 88.0605 13.2793C88.0605 12.8646 88.1426 12.4886 88.3066 12.1514C88.4753 11.8141 88.7077 11.5247 89.0039 11.2832C89.3001 11.0371 89.651 10.8503 90.0566 10.7227C90.4622 10.5905 90.9043 10.5244 91.3828 10.5244C92.0208 10.5244 92.5905 10.6406 93.0918 10.873C93.5977 11.1009 93.9941 11.4222 94.2812 11.8369C94.5684 12.2471 94.7119 12.7279 94.7119 13.2793ZM92.8936 13.1699C92.8936 12.8509 92.8298 12.5752 92.7021 12.3428C92.5791 12.1058 92.4036 11.9235 92.1758 11.7959C91.9479 11.6683 91.6836 11.6045 91.3828 11.6045C91.0775 11.6045 90.8109 11.6683 90.583 11.7959C90.3597 11.9235 90.1842 12.1058 90.0566 12.3428C89.9336 12.5752 89.8721 12.8509 89.8721 13.1699C89.8721 13.4935 89.9336 13.7715 90.0566 14.0039C90.1842 14.2318 90.362 14.4072 90.5898 14.5303C90.8177 14.6533 91.0866 14.7148 91.3965 14.7148C91.7064 14.7148 91.973 14.6533 92.1963 14.5303C92.4196 14.4072 92.5905 14.2318 92.709 14.0039C92.832 13.7715 92.8936 13.4935 92.8936 13.1699ZM94.4932 8.67188C94.4932 9.17318 94.361 9.61979 94.0967 10.0117C93.8324 10.3991 93.4655 10.7021 92.9961 10.9209C92.5312 11.1396 91.998 11.249 91.3965 11.249C90.7949 11.249 90.2572 11.1396 89.7832 10.9209C89.3138 10.7021 88.9447 10.3991 88.6758 10.0117C88.4115 9.61979 88.2793 9.17318 88.2793 8.67188C88.2793 8.07943 88.4137 7.57812 88.6826 7.16797C88.9515 6.75326 89.3184 6.4388 89.7832 6.22461C90.2526 6.01042 90.7858 5.90332 91.3828 5.90332C91.9889 5.90332 92.5267 6.01042 92.9961 6.22461C93.4655 6.4388 93.8324 6.75326 94.0967 7.16797C94.361 7.57812 94.4932 8.07943 94.4932 8.67188ZM92.6885 8.74707C92.6885 8.46452 92.6361 8.21842 92.5312 8.00879C92.4264 7.7946 92.276 7.62826 92.0801 7.50977C91.8887 7.39128 91.6562 7.33203 91.3828 7.33203C91.1185 7.33203 90.8906 7.389 90.6992 7.50293C90.5078 7.61686 90.3597 7.78092 90.2549 7.99512C90.1501 8.20475 90.0977 8.4554 90.0977 8.74707C90.0977 9.03418 90.1501 9.28483 90.2549 9.49902C90.3597 9.71322 90.5078 9.88184 90.6992 10.0049C90.8952 10.1234 91.1276 10.1826 91.3965 10.1826C91.6654 10.1826 91.8955 10.1234 92.0869 10.0049C92.2783 9.88184 92.4264 9.71322 92.5312 9.49902C92.6361 9.28483 92.6885 9.03418 92.6885 8.74707ZM102.71 13.2793C102.71 13.8991 102.564 14.4232 102.272 14.8516C101.985 15.2754 101.591 15.5967 101.09 15.8154C100.593 16.0296 100.028 16.1367 99.3945 16.1367C98.7656 16.1367 98.1982 16.0296 97.6924 15.8154C97.1911 15.5967 96.7923 15.2754 96.4961 14.8516C96.2044 14.4232 96.0586 13.8991 96.0586 13.2793C96.0586 12.8646 96.1406 12.4886 96.3047 12.1514C96.4733 11.8141 96.7057 11.5247 97.002 11.2832C97.2982 11.0371 97.6491 10.8503 98.0547 10.7227C98.4603 10.5905 98.9023 10.5244 99.3809 10.5244C100.019 10.5244 100.589 10.6406 101.09 10.873C101.596 11.1009 101.992 11.4222 102.279 11.8369C102.566 12.2471 102.71 12.7279 102.71 13.2793ZM100.892 13.1699C100.892 12.8509 100.828 12.5752 100.7 12.3428C100.577 12.1058 100.402 11.9235 100.174 11.7959C99.946 11.6683 99.6816 11.6045 99.3809 11.6045C99.0755 11.6045 98.8089 11.6683 98.5811 11.7959C98.3577 11.9235 98.1823 12.1058 98.0547 12.3428C97.9316 12.5752 97.8701 12.8509 97.8701 13.1699C97.8701 13.4935 97.9316 13.7715 98.0547 14.0039C98.1823 14.2318 98.36 14.4072 98.5879 14.5303C98.8158 14.6533 99.0846 14.7148 99.3945 14.7148C99.7044 14.7148 99.971 14.6533 100.194 14.5303C100.418 14.4072 100.589 14.2318 100.707 14.0039C100.83 13.7715 100.892 13.4935 100.892 13.1699ZM102.491 8.67188C102.491 9.17318 102.359 9.61979 102.095 10.0117C101.83 10.3991 101.464 10.7021 100.994 10.9209C100.529 11.1396 99.9961 11.249 99.3945 11.249C98.793 11.249 98.2552 11.1396 97.7812 10.9209C97.3118 10.7021 96.9427 10.3991 96.6738 10.0117C96.4095 9.61979 96.2773 9.17318 96.2773 8.67188C96.2773 8.07943 96.4118 7.57812 96.6807 7.16797C96.9495 6.75326 97.3164 6.4388 97.7812 6.22461C98.2507 6.01042 98.7839 5.90332 99.3809 5.90332C99.987 5.90332 100.525 6.01042 100.994 6.22461C101.464 6.4388 101.83 6.75326 102.095 7.16797C102.359 7.57812 102.491 8.07943 102.491 8.67188ZM100.687 8.74707C100.687 8.46452 100.634 8.21842 100.529 8.00879C100.424 7.7946 100.274 7.62826 100.078 7.50977C99.8867 7.39128 99.6543 7.33203 99.3809 7.33203C99.1165 7.33203 98.8887 7.389 98.6973 7.50293C98.5059 7.61686 98.3577 7.78092 98.2529 7.99512C98.1481 8.20475 98.0957 8.4554 98.0957 8.74707C98.0957 9.03418 98.1481 9.28483 98.2529 9.49902C98.3577 9.71322 98.5059 9.88184 98.6973 10.0049C98.8932 10.1234 99.1257 10.1826 99.3945 10.1826C99.6634 10.1826 99.8936 10.1234 100.085 10.0049C100.276 9.88184 100.424 9.71322 100.529 9.49902C100.634 9.28483 100.687 9.03418 100.687 8.74707ZM110.708 13.2793C110.708 13.8991 110.562 14.4232 110.271 14.8516C109.983 15.2754 109.589 15.5967 109.088 15.8154C108.591 16.0296 108.026 16.1367 107.393 16.1367C106.764 16.1367 106.196 16.0296 105.69 15.8154C105.189 15.5967 104.79 15.2754 104.494 14.8516C104.202 14.4232 104.057 13.8991 104.057 13.2793C104.057 12.8646 104.139 12.4886 104.303 12.1514C104.471 11.8141 104.704 11.5247 105 11.2832C105.296 11.0371 105.647 10.8503 106.053 10.7227C106.458 10.5905 106.9 10.5244 107.379 10.5244C108.017 10.5244 108.587 10.6406 109.088 10.873C109.594 11.1009 109.99 11.4222 110.277 11.8369C110.564 12.2471 110.708 12.7279 110.708 13.2793ZM108.89 13.1699C108.89 12.8509 108.826 12.5752 108.698 12.3428C108.575 12.1058 108.4 11.9235 108.172 11.7959C107.944 11.6683 107.68 11.6045 107.379 11.6045C107.074 11.6045 106.807 11.6683 106.579 11.7959C106.356 11.9235 106.18 12.1058 106.053 12.3428C105.93 12.5752 105.868 12.8509 105.868 13.1699C105.868 13.4935 105.93 13.7715 106.053 14.0039C106.18 14.2318 106.358 14.4072 106.586 14.5303C106.814 14.6533 107.083 14.7148 107.393 14.7148C107.702 14.7148 107.969 14.6533 108.192 14.5303C108.416 14.4072 108.587 14.2318 108.705 14.0039C108.828 13.7715 108.89 13.4935 108.89 13.1699ZM110.489 8.67188C110.489 9.17318 110.357 9.61979 110.093 10.0117C109.828 10.3991 109.462 10.7021 108.992 10.9209C108.527 11.1396 107.994 11.249 107.393 11.249C106.791 11.249 106.253 11.1396 105.779 10.9209C105.31 10.7021 104.941 10.3991 104.672 10.0117C104.408 9.61979 104.275 9.17318 104.275 8.67188C104.275 8.07943 104.41 7.57812 104.679 7.16797C104.948 6.75326 105.314 6.4388 105.779 6.22461C106.249 6.01042 106.782 5.90332 107.379 5.90332C107.985 5.90332 108.523 6.01042 108.992 6.22461C109.462 6.4388 109.828 6.75326 110.093 7.16797C110.357 7.57812 110.489 8.07943 110.489 8.67188ZM108.685 8.74707C108.685 8.46452 108.632 8.21842 108.527 8.00879C108.423 7.7946 108.272 7.62826 108.076 7.50977C107.885 7.39128 107.652 7.33203 107.379 7.33203C107.115 7.33203 106.887 7.389 106.695 7.50293C106.504 7.61686 106.356 7.78092 106.251 7.99512C106.146 8.20475 106.094 8.4554 106.094 8.74707C106.094 9.03418 106.146 9.28483 106.251 9.49902C106.356 9.71322 106.504 9.88184 106.695 10.0049C106.891 10.1234 107.124 10.1826 107.393 10.1826C107.661 10.1826 107.892 10.1234 108.083 10.0049C108.274 9.88184 108.423 9.71322 108.527 9.49902C108.632 9.28483 108.685 9.03418 108.685 8.74707ZM122.5 12.3701V13.792H115.329L115.254 12.6982L119.472 6.04688H120.914L119.355 8.69238L117.093 12.3701H122.5ZM121.317 6.04688V16H119.506V6.04688H121.317ZM128.611 5.96484H128.857V7.4209H128.741C128.19 7.4209 127.704 7.50521 127.285 7.67383C126.87 7.84245 126.524 8.07943 126.246 8.38477C125.973 8.68555 125.765 9.04329 125.624 9.45801C125.483 9.86816 125.412 10.3171 125.412 10.8047V12.418C125.412 12.7962 125.451 13.1289 125.528 13.416C125.61 13.6986 125.722 13.9378 125.863 14.1338C126.009 14.3252 126.178 14.4688 126.369 14.5645C126.565 14.6602 126.779 14.708 127.012 14.708C127.244 14.708 127.454 14.6602 127.641 14.5645C127.827 14.4688 127.987 14.3343 128.119 14.1611C128.256 13.9834 128.358 13.776 128.427 13.5391C128.5 13.3021 128.536 13.0423 128.536 12.7598C128.536 12.4818 128.502 12.2243 128.434 11.9873C128.365 11.7503 128.265 11.543 128.133 11.3652C128.001 11.1829 127.837 11.0439 127.641 10.9482C127.449 10.848 127.23 10.7979 126.984 10.7979C126.665 10.7979 126.381 10.873 126.13 11.0234C125.879 11.1693 125.681 11.3607 125.535 11.5977C125.389 11.8346 125.31 12.0853 125.296 12.3496L124.688 12.0488C124.71 11.6615 124.792 11.306 124.934 10.9824C125.079 10.6589 125.273 10.3763 125.515 10.1348C125.761 9.89323 126.05 9.70638 126.383 9.57422C126.72 9.44206 127.094 9.37598 127.504 9.37598C127.978 9.37598 128.393 9.46712 128.748 9.64941C129.104 9.82715 129.397 10.071 129.63 10.3809C129.867 10.6908 130.045 11.0485 130.163 11.4541C130.282 11.8551 130.341 12.279 130.341 12.7256C130.341 13.2041 130.263 13.6507 130.108 14.0654C129.958 14.4801 129.739 14.8424 129.452 15.1523C129.165 15.4622 128.819 15.7038 128.413 15.877C128.007 16.0501 127.552 16.1367 127.046 16.1367C126.513 16.1367 126.034 16.0365 125.61 15.8359C125.191 15.6354 124.831 15.3574 124.53 15.002C124.229 14.6465 123.999 14.2318 123.84 13.7578C123.68 13.2839 123.601 12.7712 123.601 12.2197V11.4951C123.601 10.7158 123.708 9.99121 123.922 9.32129C124.136 8.65137 124.453 8.06576 124.872 7.56445C125.296 7.05859 125.82 6.66667 126.444 6.38867C127.069 6.10612 127.791 5.96484 128.611 5.96484ZM138.496 12.3701V13.792H131.325L131.25 12.6982L135.468 6.04688H136.91L135.352 8.69238L133.089 12.3701H138.496ZM137.313 6.04688V16H135.502V6.04688H137.313ZM149.81 14.5781V16H143.069V14.7832L146.303 11.29C146.64 10.9072 146.907 10.5745 147.103 10.292C147.299 10.0094 147.438 9.75423 147.52 9.52637C147.606 9.29395 147.649 9.07292 147.649 8.86328C147.649 8.55794 147.595 8.29134 147.485 8.06348C147.376 7.83105 147.216 7.65104 147.007 7.52344C146.802 7.39583 146.549 7.33203 146.248 7.33203C145.915 7.33203 145.631 7.40951 145.394 7.56445C145.161 7.71484 144.983 7.92448 144.86 8.19336C144.742 8.46224 144.683 8.76986 144.683 9.11621H142.871C142.871 8.52832 143.008 7.99284 143.281 7.50977C143.555 7.02214 143.947 6.63249 144.457 6.34082C144.967 6.04915 145.574 5.90332 146.275 5.90332C146.959 5.90332 147.538 6.01725 148.012 6.24512C148.486 6.46842 148.846 6.78743 149.092 7.20215C149.338 7.61686 149.461 8.11133 149.461 8.68555C149.461 9.00456 149.409 9.31901 149.304 9.62891C149.199 9.9388 149.051 10.2464 148.859 10.5518C148.673 10.8525 148.449 11.1579 148.189 11.4678C147.93 11.7777 147.64 12.0944 147.321 12.418L145.38 14.5781H149.81ZM152.858 11.4199L151.416 11.0713L151.97 6.04688H157.445V7.54395H153.467L153.207 9.86816C153.348 9.78158 153.553 9.69499 153.822 9.6084C154.096 9.51725 154.403 9.47168 154.745 9.47168C155.219 9.47168 155.643 9.54915 156.017 9.7041C156.39 9.85449 156.707 10.0732 156.967 10.3604C157.231 10.6475 157.429 10.9984 157.562 11.4131C157.698 11.8232 157.767 12.2881 157.767 12.8076C157.767 13.2633 157.698 13.6917 157.562 14.0928C157.429 14.4893 157.227 14.8424 156.953 15.1523C156.68 15.4577 156.336 15.6992 155.921 15.877C155.506 16.0501 155.019 16.1367 154.458 16.1367C154.034 16.1367 153.626 16.0752 153.234 15.9521C152.847 15.8245 152.498 15.64 152.188 15.3984C151.879 15.1523 151.63 14.8516 151.443 14.4961C151.261 14.1406 151.161 13.7327 151.143 13.2725H152.927C152.959 13.5778 153.041 13.8376 153.173 14.0518C153.305 14.266 153.478 14.43 153.692 14.5439C153.911 14.6579 154.164 14.7148 154.451 14.7148C154.711 14.7148 154.934 14.667 155.121 14.5713C155.312 14.471 155.47 14.332 155.593 14.1543C155.716 13.9766 155.807 13.7669 155.866 13.5254C155.925 13.2839 155.955 13.0195 155.955 12.7324C155.955 12.4544 155.921 12.2015 155.853 11.9736C155.784 11.7412 155.679 11.5407 155.538 11.3721C155.397 11.2035 155.219 11.0736 155.005 10.9824C154.795 10.8913 154.549 10.8457 154.267 10.8457C153.888 10.8457 153.597 10.9027 153.392 11.0166C153.191 11.1305 153.013 11.265 152.858 11.4199ZM165.669 13.2793C165.669 13.8991 165.523 14.4232 165.231 14.8516C164.944 15.2754 164.55 15.5967 164.049 15.8154C163.552 16.0296 162.987 16.1367 162.354 16.1367C161.725 16.1367 161.157 16.0296 160.651 15.8154C160.15 15.5967 159.751 15.2754 159.455 14.8516C159.163 14.4232 159.018 13.8991 159.018 13.2793C159.018 12.8646 159.1 12.4886 159.264 12.1514C159.432 11.8141 159.665 11.5247 159.961 11.2832C160.257 11.0371 160.608 10.8503 161.014 10.7227C161.419 10.5905 161.861 10.5244 162.34 10.5244C162.978 10.5244 163.548 10.6406 164.049 10.873C164.555 11.1009 164.951 11.4222 165.238 11.8369C165.525 12.2471 165.669 12.7279 165.669 13.2793ZM163.851 13.1699C163.851 12.8509 163.787 12.5752 163.659 12.3428C163.536 12.1058 163.361 11.9235 163.133 11.7959C162.905 11.6683 162.641 11.6045 162.34 11.6045C162.035 11.6045 161.768 11.6683 161.54 11.7959C161.317 11.9235 161.141 12.1058 161.014 12.3428C160.891 12.5752 160.829 12.8509 160.829 13.1699C160.829 13.4935 160.891 13.7715 161.014 14.0039C161.141 14.2318 161.319 14.4072 161.547 14.5303C161.775 14.6533 162.044 14.7148 162.354 14.7148C162.663 14.7148 162.93 14.6533 163.153 14.5303C163.377 14.4072 163.548 14.2318 163.666 14.0039C163.789 13.7715 163.851 13.4935 163.851 13.1699ZM165.45 8.67188C165.45 9.17318 165.318 9.61979 165.054 10.0117C164.789 10.3991 164.423 10.7021 163.953 10.9209C163.488 11.1396 162.955 11.249 162.354 11.249C161.752 11.249 161.214 11.1396 160.74 10.9209C160.271 10.7021 159.902 10.3991 159.633 10.0117C159.368 9.61979 159.236 9.17318 159.236 8.67188C159.236 8.07943 159.371 7.57812 159.64 7.16797C159.909 6.75326 160.275 6.4388 160.74 6.22461C161.21 6.01042 161.743 5.90332 162.34 5.90332C162.946 5.90332 163.484 6.01042 163.953 6.22461C164.423 6.4388 164.789 6.75326 165.054 7.16797C165.318 7.57812 165.45 8.07943 165.45 8.67188ZM163.646 8.74707C163.646 8.46452 163.593 8.21842 163.488 8.00879C163.383 7.7946 163.233 7.62826 163.037 7.50977C162.846 7.39128 162.613 7.33203 162.34 7.33203C162.076 7.33203 161.848 7.389 161.656 7.50293C161.465 7.61686 161.317 7.78092 161.212 7.99512C161.107 8.20475 161.055 8.4554 161.055 8.74707C161.055 9.03418 161.107 9.28483 161.212 9.49902C161.317 9.71322 161.465 9.88184 161.656 10.0049C161.852 10.1234 162.085 10.1826 162.354 10.1826C162.622 10.1826 162.853 10.1234 163.044 10.0049C163.235 9.88184 163.383 9.71322 163.488 9.49902C163.593 9.28483 163.646 9.03418 163.646 8.74707Z" fill="#262626"/>
</svg>
