<svg width="20" height="20" viewBox="0 0 20 20" fill="none" xmlns="http://www.w3.org/2000/svg">
<path d="M18.0273 5.53847C17.7655 4.93229 17.3881 4.38298 16.916 3.92128C16.4436 3.4582 15.8866 3.09021 15.2754 2.83729C14.6416 2.574 13.9617 2.43923 13.2754 2.44081C12.3125 2.44081 11.373 2.70448 10.5566 3.20253C10.3613 3.32167 10.1758 3.45253 10 3.59511C9.82422 3.45253 9.63867 3.32167 9.44336 3.20253C8.62695 2.70448 7.6875 2.44081 6.72461 2.44081C6.03125 2.44081 5.35938 2.57362 4.72461 2.83729C4.11133 3.0912 3.55859 3.45643 3.08398 3.92128C2.61132 4.38245 2.23375 4.9319 1.97266 5.53847C1.70117 6.16932 1.5625 6.83925 1.5625 7.5287C1.5625 8.17909 1.69531 8.85682 1.95898 9.54628C2.17969 10.1224 2.49609 10.7201 2.90039 11.3236C3.54102 12.2787 4.42188 13.2748 5.51562 14.2846C7.32812 15.9584 9.12305 17.1146 9.19922 17.1615L9.66211 17.4584C9.86719 17.5892 10.1309 17.5892 10.3359 17.4584L10.7988 17.1615C10.875 17.1127 12.668 15.9584 14.4824 14.2846C15.5762 13.2748 16.457 12.2787 17.0977 11.3236C17.502 10.7201 17.8203 10.1224 18.0391 9.54628C18.3027 8.85682 18.4355 8.17909 18.4355 7.5287C18.4375 6.83925 18.2988 6.16932 18.0273 5.53847ZM10 15.9135C10 15.9135 3.04688 11.4584 3.04688 7.5287C3.04688 5.53847 4.69336 3.92518 6.72461 3.92518C8.15234 3.92518 9.39062 4.72206 10 5.88612C10.6094 4.72206 11.8477 3.92518 13.2754 3.92518C15.3066 3.92518 16.9531 5.53847 16.9531 7.5287C16.9531 11.4584 10 15.9135 10 15.9135Z" fill="#F5222D"/>
</svg>
