<svg width="80" height="38" viewBox="0 0 80 38" fill="none" xmlns="http://www.w3.org/2000/svg">
<path d="M29.6394 23.3837C28.7182 23.3857 27.8161 23.1206 27.0419 22.6204C26.2677 22.1202 25.6545 21.4062 25.276 20.5646C24.8976 19.723 24.7703 18.7896 24.9093 17.8771C25.0483 16.9645 25.4477 16.1118 26.0595 15.4216C26.6712 14.7315 27.4692 14.2334 28.357 13.9875C29.2449 13.7415 30.1848 13.7582 31.0634 14.0355C31.942 14.3128 32.7219 14.8389 33.3088 15.5503C33.8958 16.2617 34.2649 17.1281 34.3716 18.045H39.166C39.0222 15.5553 37.9155 13.2198 36.0811 11.5345C34.2467 9.84919 31.829 8.94679 29.3414 9.01891C26.8538 9.09102 24.4922 10.132 22.7581 11.9208C21.024 13.7095 20.054 16.1052 20.054 18.5991C20.054 21.093 21.024 23.4887 22.7581 25.2774C24.4922 27.0662 26.8538 28.1072 29.3414 28.1793C31.829 28.2514 34.2467 27.349 36.0811 25.6637C37.9155 23.9784 39.0222 21.6429 39.166 19.1532H34.389C34.2533 20.3195 33.6943 21.3952 32.8185 22.1753C31.9427 22.9554 30.8112 23.3855 29.6394 23.3837Z" fill="white"/>
<path d="M13.9276 9.57166V18.9687C13.9276 21.4271 11.7483 23.4188 9.29506 23.4188C6.84178 23.4188 4.64255 21.4196 4.64255 18.9687V9.57166H0V18.9687C-4.38396e-08 20.1918 0.240442 21.4029 0.707593 22.5329C1.17474 23.6628 1.85945 24.6895 2.72261 25.5542C3.58577 26.419 4.61047 27.1049 5.73818 27.5727C6.86589 28.0405 8.07453 28.2812 9.29506 28.2808C11.0659 28.2808 12.4283 27.8291 13.9276 26.4538V28.3083C13.9276 30.7667 11.9949 32.7585 9.29506 32.7585C6.59521 32.7585 4.45077 30.7617 4.45077 28.3083H0C0.0399209 30.752 1.03664 33.082 2.77523 34.796C4.51381 36.5099 6.85496 37.4705 9.29381 37.4705C11.7327 37.4705 14.0738 36.5099 15.8124 34.796C17.551 33.082 18.5477 30.752 18.5876 28.3083V9.58913L13.9276 9.57166Z" fill="white"/>
<path d="M75.3402 9.57166V18.9687C75.3402 21.4271 73.1609 23.4188 70.7077 23.4188C68.2544 23.4188 66.0551 21.4221 66.0551 18.9687V9.57166H61.4126V18.9687C61.4126 20.1918 61.653 21.4029 62.1202 22.5329C62.5873 23.6628 63.272 24.6895 64.1352 25.5543C64.9984 26.419 66.0231 27.1049 67.1508 27.5727C68.2785 28.0405 69.4871 28.2812 70.7077 28.2808C72.4785 28.2808 73.8409 27.8291 75.3402 26.4538V28.3083C75.3402 30.7667 73.4075 32.7585 70.7077 32.7585C68.0078 32.7585 65.8634 30.7617 65.8634 28.3083H61.4126C61.4525 30.752 62.4492 33.082 64.1878 34.796C65.9264 36.5099 68.2676 37.4705 70.7064 37.4705C73.1453 37.4705 75.4864 36.5099 77.225 34.796C78.9636 33.082 79.9603 30.752 80.0002 28.3083V9.58913L75.3402 9.57166Z" fill="#FAB005"/>
<path d="M54.8529 0V10.6599C53.4326 9.61184 51.7176 9.0413 49.9538 9.03012C44.9725 9.03012 40.9228 13.0235 40.6438 18.0478H45.4159C45.5567 16.8296 46.157 15.7115 47.0938 14.9225C48.0306 14.1335 49.2331 13.7333 50.4548 13.804C51.6765 13.8747 52.825 14.4108 53.665 15.3026C54.505 16.1944 54.973 17.3743 54.973 18.6006C54.973 19.8269 54.505 21.0068 53.665 21.8986C52.825 22.7904 51.6765 23.3265 50.4548 23.3972C49.2331 23.4679 48.0306 23.0677 47.0938 22.2787C46.157 21.4897 45.5567 20.3716 45.4159 19.1534H40.6438C40.9252 24.1802 44.985 28.1686 49.9538 28.1686C51.7316 28.1366 53.4556 27.5523 54.8878 26.4963L55.5652 27.9489H59.5278V0H54.8529Z" fill="#FAB005"/>
</svg>
