<svg width="24" height="25" viewBox="0 0 24 25" fill="currentColor" xmlns="http://www.w3.org/2000/svg">
<path d="M3 5.47046C3 3.8136 4.34315 2.47046 6 2.47046H15.7574C16.553 2.47046 17.3161 2.78653 17.8787 3.34914L20.1213 5.59178C20.6839 6.15439 21 6.91745 21 7.7131V19.4705C21 21.1273 19.6569 22.4705 18 22.4705H6C4.34315 22.4705 3 21.1273 3 19.4705V5.47046Z" fill="inherit"/>
<path fill-rule="evenodd" clip-rule="evenodd" d="M7 11.4705C7 10.9182 7.44772 10.4705 8 10.4705H16C16.5523 10.4705 17 10.9182 17 11.4705C17 12.0227 16.5523 12.4705 16 12.4705H8C7.44772 12.4705 7 12.0227 7 11.4705Z" fill="#E5E7EB"/>
<path fill-rule="evenodd" clip-rule="evenodd" d="M7 15.4705C7 14.9182 7.44772 14.4705 8 14.4705H12C12.5523 14.4705 13 14.9182 13 15.4705C13 16.0227 12.5523 16.4705 12 16.4705H8C7.44772 16.4705 7 16.0227 7 15.4705Z" fill="#E5E7EB"/>
<path d="M17.7071 3.17757L20.2929 5.76335C20.7456 6.2161 21 6.83017 21 7.47046H18C16.8954 7.47046 16 6.57503 16 5.47046V2.47046C16.6403 2.47046 17.2544 2.72481 17.7071 3.17757Z" fill="#E5E7EB"/>
</svg>
