<svg width="20" height="20" viewBox="0 0 20 20" fill="none" xmlns="http://www.w3.org/2000/svg">
<g clip-path="url(#clip0_9319_76291)">
<path d="M15.5556 12.2222H16.6667V16.6667H12.2222V15.5556H11.1111V17.7778H17.7778V11.1111H15.5556V12.2222Z" fill="#8C8C8C"/>
<path d="M7.77778 16.6667H3.33334V12.2222H4.44445V11.1111H2.22223V17.7778H8.8889V15.5556H7.77778V16.6667Z" fill="#8C8C8C"/>
<path d="M4.44445 7.77778H3.33334V3.33334H7.77778V4.44445H8.8889V2.22223H2.22223V8.8889H4.44445V7.77778Z" fill="#8C8C8C"/>
<path d="M11.1111 2.22223V4.44445H12.2222V3.33334H16.6667V7.77778H15.5556V8.8889H17.7778V2.22223H11.1111Z" fill="#8C8C8C"/>
<path d="M6.11111 6.11111H9.44445V9.44445H6.11111V6.11111Z" fill="#FA8C16"/>
<path d="M10.5555 6.11111H13.8889V9.44445H10.5555V6.11111Z" fill="#FFC069"/>
<path d="M6.11111 10.5555H9.44445V13.8889H6.11111V10.5555Z" fill="#FFC069"/>
<path d="M10.5555 10.5555H13.8889V13.8889H10.5555V10.5555Z" fill="#FA8C16"/>
</g>
<defs>
<clipPath id="clip0_9319_76291">
<rect width="20" height="20" fill="white"/>
</clipPath>
</defs>
</svg>
